name rise31.4854peak64.571fall78.6902.mot
datacolumns 19
datarows 29
range 21.23825500000000 21.28492200000000
endheader
time	ground_force1_vx	ground_force1_vy	ground_force1_vz	ground_force1_px	ground_force1_py	ground_force1_pz	ground_force2_vx	ground_force2_vy	ground_force2_vz	ground_force2_px	ground_force2_py	ground_force2_pz	ground_torque1_x	ground_torque1_y	ground_torque1_z	ground_torque2_x	ground_torque2_y	ground_torque2_z	
21.23825500000000	-10.23276300000000	45.86844400000000	-11.98801700000000	0.29102000000000	0.00000000000000	0.08146800000000	-53.60444700000000	770.19971399999997	-47.81694400000000	0.12371300000000	0.00000000000000	-0.09310500000000	0.00000000000000	-7.31207700000000	0.00000000000000	0.00000000000000	-19.93354800000000	0.00000000000000	
21.23992300000000	-11.08901400000000	54.17558200000000	-13.51336900000000	0.29834500000000	0.00000000000000	0.08263900000000	-54.46593000000000	767.06809899999996	-47.44112100000000	0.12267100000000	0.00000000000000	-0.09301600000000	0.00000000000000	-8.39489200000000	0.00000000000000	0.00000000000000	-19.94739000000000	0.00000000000000	
21.24158900000000	-11.71739600000000	62.69365000000000	-14.91052200000000	0.30487900000000	0.00000000000000	0.08367300000000	-55.34440400000000	763.81340899999998	-47.04719700000000	0.12162500000000	0.00000000000000	-0.09292300000000	0.00000000000000	-9.42660000000000	0.00000000000000	0.00000000000000	-19.96324900000000	0.00000000000000	
21.24325800000000	-12.09051900000000	71.32039300000000	-16.14749900000000	0.31076900000000	0.00000000000000	0.08459600000000	-56.23833100000000	760.43191300000001	-46.63504200000000	0.12057600000000	0.00000000000000	-0.09282900000000	0.00000000000000	-10.38462400000000	0.00000000000000	0.00000000000000	-19.98085800000000	0.00000000000000	
21.24492400000000	-12.19346300000000	79.97536500000000	-17.20271900000000	0.31612700000000	0.00000000000000	0.08542600000000	-57.14604200000000	756.91980699999999	-46.20454000000000	0.11952400000000	0.00000000000000	-0.09273200000000	0.00000000000000	-11.25237600000000	0.00000000000000	0.00000000000000	-19.99992200000000	0.00000000000000	
21.24658800000000	-12.02344200000000	88.60276800000000	-18.06518200000000	0.32103900000000	0.00000000000000	0.08617800000000	-58.06573600000000	753.27323300000000	-45.75559000000000	0.11847100000000	0.00000000000000	-0.09263200000000	0.00000000000000	-12.01961800000000	0.00000000000000	0.00000000000000	-20.02012300000000	0.00000000000000	
21.24825400000000	-11.58853200000000	97.17178000000000	-18.73376100000000	0.32557400000000	0.00000000000000	0.08686300000000	-58.99548800000000	749.48829799999999	-45.28810800000000	0.11741900000000	0.00000000000000	-0.09252900000000	0.00000000000000	-12.68225000000000	0.00000000000000	0.00000000000000	-20.04111800000000	0.00000000000000	
21.24991700000000	-10.90573200000000	105.67477100000001	-19.21580400000000	0.32978800000000	0.00000000000000	0.08749300000000	-59.93325100000000	745.56108800000004	-44.80203000000000	0.11636900000000	0.00000000000000	-0.09242400000000	0.00000000000000	-13.24162400000000	0.00000000000000	0.00000000000000	-20.06254100000000	0.00000000000000	
21.25158400000000	-9.99861800000000	114.12390600000001	-19.52528900000000	0.33372600000000	0.00000000000000	0.08807300000000	-60.87685700000000	741.48769100000004	-44.29731500000000	0.11532200000000	0.00000000000000	-0.09231600000000	0.00000000000000	-13.70353500000000	0.00000000000000	0.00000000000000	-20.08400400000000	0.00000000000000	
21.25325800000000	-8.89486900000000	122.54671600000000	-19.68075400000000	0.33742400000000	0.00000000000000	0.08861100000000	-61.82402700000000	737.26421500000004	-43.77394300000000	0.11428100000000	0.00000000000000	-0.09220400000000	0.00000000000000	-14.07702400000000	0.00000000000000	0.00000000000000	-20.10509800000000	0.00000000000000	
21.25492000000000	-7.62388100000000	130.98116899999999	-19.70321800000000	0.34091100000000	0.00000000000000	0.08911100000000	-62.77237300000000	732.88680999999997	-43.23192000000000	0.11324500000000	0.00000000000000	-0.09209000000000	0.00000000000000	-14.37311700000000	0.00000000000000	0.00000000000000	-20.12539200000000	0.00000000000000	
21.25659000000000	-6.21465200000000	139.47074100000000	-19.61425900000000	0.34421200000000	0.00000000000000	0.08957800000000	-63.71940700000000	728.35169299999995	-42.67128100000000	0.11221700000000	0.00000000000000	-0.09197300000000	0.00000000000000	-14.60362800000000	0.00000000000000	0.00000000000000	-20.14444100000000	0.00000000000000	
21.25825700000000	-4.69405800000000	148.05987300000001	-19.43438100000000	0.34734900000000	0.00000000000000	0.09001700000000	-64.66254100000000	723.65516800000000	-42.09208900000000	0.11119900000000	0.00000000000000	-0.09185200000000	0.00000000000000	-14.78009900000000	0.00000000000000	0.00000000000000	-20.16177700000000	0.00000000000000	
21.25992000000000	-3.08558600000000	156.79010700000001	-19.18174700000000	0.35033700000000	0.00000000000000	0.09042900000000	-65.59910499999999	718.79365199999995	-41.49443900000000	0.11019200000000	0.00000000000000	-0.09172800000000	0.00000000000000	-14.91294700000000	0.00000000000000	0.00000000000000	-20.17692100000000	0.00000000000000	
21.26158400000000	-1.40854700000000	165.69708199999999	-18.87130900000000	0.35319300000000	0.00000000000000	0.09081700000000	-66.52634300000000	713.76370099999997	-40.87845800000000	0.10919700000000	0.00000000000000	-0.09160000000000	0.00000000000000	-15.01084700000000	0.00000000000000	0.00000000000000	-20.18937800000000	0.00000000000000	
21.26325800000000	0.32225900000000	174.80846600000001	-18.51433700000000	0.35592800000000	0.00000000000000	0.09118500000000	-67.44142900000000	708.56203100000005	-40.24430800000000	0.10821600000000	0.00000000000000	-0.09146900000000	0.00000000000000	-15.08035600000000	0.00000000000000	0.00000000000000	-20.19863900000000	0.00000000000000	
21.26492000000000	2.09648600000000	184.14281099999999	-18.11831100000000	0.35855300000000	0.00000000000000	0.09153300000000	-68.34147299999999	703.18554600000004	-39.59219000000000	0.10725000000000	0.00000000000000	-0.09133500000000	0.00000000000000	-15.12576500000000	0.00000000000000	0.00000000000000	-20.20418800000000	0.00000000000000	
21.26659100000000	3.90785300000000	193.70925500000001	-17.68711000000000	0.36107600000000	0.00000000000000	0.09186400000000	-69.22352700000000	697.63135999999997	-38.92234000000000	0.10630100000000	0.00000000000000	-0.09119600000000	0.00000000000000	-15.14915200000000	0.00000000000000	0.00000000000000	-20.20549800000000	0.00000000000000	
21.26825600000000	5.75353400000000	203.50793600000000	-17.22144900000000	0.36350500000000	0.00000000000000	0.09217800000000	-70.08459900000000	691.89681900000005	-38.23503500000000	0.10537100000000	0.00000000000000	-0.09105400000000	0.00000000000000	-15.15059800000000	0.00000000000000	0.00000000000000	-20.20203300000000	0.00000000000000	
21.26992300000000	7.63339700000000	213.53095200000001	-16.71946400000000	0.36584700000000	0.00000000000000	0.09247900000000	-70.92166200000000	685.97952399999997	-37.53059400000000	0.10446100000000	0.00000000000000	-0.09090800000000	0.00000000000000	-15.12851300000000	0.00000000000000	0.00000000000000	-20.19325600000000	0.00000000000000	
21.27159100000000	9.54918100000000	223.76370700000001	-16.17739100000000	0.36810600000000	0.00000000000000	0.09276500000000	-71.73165899999999	679.87734899999998	-36.80937800000000	0.10357300000000	0.00000000000000	-0.09075700000000	0.00000000000000	-15.08003400000000	0.00000000000000	0.00000000000000	-20.17862600000000	0.00000000000000	
21.27325200000000	11.50369000000000	234.18645599999999	-15.59026200000000	0.37028700000000	0.00000000000000	0.09303900000000	-72.51152100000000	673.58845899999994	-36.07179300000000	0.10270700000000	0.00000000000000	-0.09060200000000	0.00000000000000	-15.00145600000000	0.00000000000000	0.00000000000000	-20.15760000000000	0.00000000000000	
21.27491600000000	13.50005300000000	244.77591100000001	-14.95257000000000	0.37239500000000	0.00000000000000	0.09330200000000	-73.25817100000000	667.11132499999997	-35.31829200000000	0.10186500000000	0.00000000000000	-0.09044400000000	0.00000000000000	-14.88864500000000	0.00000000000000	0.00000000000000	-20.12963800000000	0.00000000000000	
21.27658400000000	15.54110000000000	255.50678199999999	-14.25885300000000	0.37443200000000	0.00000000000000	0.09355400000000	-73.96854100000000	660.44473600000003	-34.54937200000000	0.10104900000000	0.00000000000000	-0.09028000000000	0.00000000000000	-14.73742200000000	0.00000000000000	0.00000000000000	-20.09420400000000	0.00000000000000	
21.27825300000000	17.62887100000000	266.35313600000001	-13.50417700000000	0.37640200000000	0.00000000000000	0.09379500000000	-74.63957900000000	653.58780999999999	-33.76558500000000	0.10026000000000	0.00000000000000	-0.09011200000000	0.00000000000000	-14.54387800000000	0.00000000000000	0.00000000000000	-20.05076900000000	0.00000000000000	
21.27992400000000	19.76427300000000	277.28953300000001	-12.68449100000000	0.37830500000000	0.00000000000000	0.09402800000000	-75.26826500000000	646.54000499999995	-32.96752800000000	0.09950000000000	0.00000000000000	-0.08994000000000	0.00000000000000	-14.30463100000000	0.00000000000000	0.00000000000000	-19.99881500000000	0.00000000000000	
21.28158900000000	21.94689100000000	288.29189300000002	-11.79687100000000	0.38014500000000	0.00000000000000	0.09425100000000	-75.85162200000001	639.30112099999997	-32.15585400000000	0.09876900000000	0.00000000000000	-0.08976300000000	0.00000000000000	-14.01699200000000	0.00000000000000	0.00000000000000	-19.93783400000000	0.00000000000000	
21.28325500000000	24.17491300000000	299.33807400000001	-10.83963500000000	0.38192300000000	0.00000000000000	0.09446600000000	-76.38672800000001	631.87131399999998	-31.33126600000000	0.09806900000000	0.00000000000000	-0.08958000000000	0.00000000000000	-13.67907100000000	0.00000000000000	0.00000000000000	-19.86733400000000	0.00000000000000	
21.28492200000000	26.44519100000000	310.40820300000001	-9.81235700000000	0.38363900000000	0.00000000000000	0.09467300000000	-76.87073300000000	624.25109599999996	-30.49452300000000	0.09740100000000	0.00000000000000	-0.08939300000000	0.00000000000000	-13.28980300000000	0.00000000000000	0.00000000000000	-19.78684200000000	0.00000000000000	
